<svg width="562" height="450" viewBox="0 0 562 450" fill="none" xmlns="http://www.w3.org/2000/svg">
<path fill-rule="evenodd" clip-rule="evenodd" d="M44 0C19.6995 0 0 19.6995 0 44H384V43.5625H473.124L322 450H341.307H562C561.444 424.625 540.714 404.344 515.333 404.344H416.867L562 0H384H322H44Z" fill="#1BA8B5"/>
<path fill-rule="evenodd" clip-rule="evenodd" d="M44 0C19.6995 0 0 19.6995 0 44H384V43.5625H473.124L322 450H341.307H562C561.444 424.625 540.714 404.344 515.333 404.344H416.867L562 0H384H322H44Z" fill="url(#paint0_linear)"/>
<path fill-rule="evenodd" clip-rule="evenodd" d="M44 0C19.6995 0 0 19.6995 0 44H384V43.5625H473.124L322 450H341.307H562C561.444 424.625 540.714 404.344 515.333 404.344H416.867L562 0H384H322H44Z" fill="url(#paint1_linear)"/>
<defs>
<linearGradient id="paint0_linear" x1="562" y1="450" x2="-2.3365e-05" y2="450" gradientUnits="userSpaceOnUse">
<stop stop-color="#30AADF"/>
<stop offset="1" stop-color="#2C79BD"/>
</linearGradient>
<linearGradient id="paint1_linear" x1="502.5" y1="225" x2="502.5" y2="450" gradientUnits="userSpaceOnUse">
<stop stop-color="#30AADF" stop-opacity="0"/>
<stop offset="1" stop-color="#2C79BD"/>
</linearGradient>
</defs>
</svg>
